<?xml version="1.0" encoding="utf-8"?>
<!-- Generator: Adobe Illustrator 24.1.2, SVG Export Plug-In . SVG Version: 6.00 Build 0)  -->
<svg version="1.1" id="Layer_1" xmlns="http://www.w3.org/2000/svg" xmlns:xlink="http://www.w3.org/1999/xlink" x="0px" y="0px"
	 viewBox="0 0 40 40" style="enable-background:new 0 0 40 40;" xml:space="preserve">
<style type="text/css">
	.st0{fill:#666766;}
</style>
<path class="st0" d="M16.7,6.3C16.7,4.5,18.2,3,20,3c1.8,0,3.3,1.5,3.3,3.3c0,1.8-1.5,3.3-3.3,3.3C18.2,9.6,16.7,8.2,16.7,6.3z
	 M28.9,21.5l-4.7-10.3c-0.2-0.5-0.7-0.8-1.3-0.8l-5.8,0c-0.5,0-1,0.3-1.3,0.8l-4.7,10.3c-0.3,0.7,0,1.6,0.7,1.9
	c0.2,0.1,0.4,0.1,0.6,0.1c0.5,0,1.1-0.3,1.3-0.8l1.5-3.2l-1.3,6c0,0.2,0,0.4,0.1,0.6c0.1,0.2,0.3,0.3,0.5,0.3H16v9
	c0,0.9,0.8,1.7,1.7,1.7c0.9,0,1.7-0.8,1.7-1.7v-9h1.2v9c0,0.9,0.8,1.7,1.7,1.7c0.9,0,1.7-0.8,1.7-1.7v-9h1.4c0.2,0,0.4-0.1,0.5-0.3
	c0.1-0.2,0.2-0.4,0.1-0.6l-1.3-6l1.5,3.2c0.2,0.5,0.8,0.8,1.3,0.8c0.2,0,0.4,0,0.6-0.1C28.9,23,29.2,22.2,28.9,21.5z"/>
</svg>
