<?xml version="1.0" encoding="utf-8"?>
<!-- Generator: Adobe Illustrator 24.1.2, SVG Export Plug-In . SVG Version: 6.00 Build 0)  -->
<svg version="1.1" id="Layer_1" xmlns="http://www.w3.org/2000/svg" xmlns:xlink="http://www.w3.org/1999/xlink" x="0px" y="0px"
	 viewBox="0 0 173.2 31.5" style="enable-background:new 0 0 173.2 31.5;" xml:space="preserve">
<style type="text/css">
	.st0{fill:#4889C8;}
	.st1{fill:#222222;}
	.st2{fill:#4789C8;}
</style>
<g>
	<path class="st0" d="M62.3,22.3h-2.6l0.1-11.1h0l-4.4,11.1h-2l-4.3-11.1h0l0.1,11.1h-2.4V8.1h3.8l3.9,10.6h0l4-10.6h3.9V22.3z"/>
	<path class="st0" d="M64.7,19.3c0-1.4,0.5-2.3,1.5-2.8s2.4-0.8,4.2-0.8c0.4,0,0.8,0,1,0v-0.5c0-1.1-0.7-1.7-2.1-1.7
		c-1,0-2,0.3-3,0.8l-0.8-1.7c0.6-0.3,1.2-0.6,1.9-0.8c0.7-0.2,1.4-0.3,2.1-0.3c1.6,0,2.7,0.4,3.4,1.1s1.1,1.8,1.1,3.3v4
		c0,0.5,0.1,1.3,0.2,2.4h-2.3c-0.1-0.5-0.2-0.9-0.2-1.2h-0.1c-0.4,0.5-0.8,0.9-1.3,1.1s-1.2,0.4-2.1,0.4c-1,0-1.8-0.3-2.4-0.8
		C65,21.2,64.7,20.4,64.7,19.3z M71.3,18.2v-0.8l-0.8,0c-1.2,0-2,0.1-2.5,0.4c-0.5,0.3-0.8,0.7-0.8,1.4c0,0.5,0.1,0.8,0.4,1
		s0.6,0.4,1.1,0.4c0.5,0,0.9-0.1,1.3-0.3c0.4-0.2,0.7-0.5,0.9-0.9C71.2,19,71.3,18.7,71.3,18.2z"/>
	<path class="st0" d="M76.8,14.2c0-0.5-0.1-1.3-0.2-2.4h2.4c0.1,0.4,0.1,0.8,0.2,1.2h0c0.3-0.4,0.8-0.8,1.4-1.1
		c0.6-0.3,1.3-0.4,2.1-0.4c0.9,0,1.6,0.2,2.1,0.5c0.6,0.4,1,0.8,1.3,1.4c0.3,0.6,0.4,1.2,0.4,1.9v6.9H84v-6.3c0-0.7-0.2-1.2-0.5-1.6
		c-0.3-0.4-0.9-0.6-1.6-0.6c-0.8,0-1.4,0.3-1.9,0.8c-0.5,0.5-0.7,1.2-0.7,2v5.8h-2.5V14.2z"/>
	<path class="st0" d="M88.5,19.3c0-1.4,0.5-2.3,1.5-2.8s2.4-0.8,4.2-0.8c0.4,0,0.8,0,1,0v-0.5c0-1.1-0.7-1.7-2.1-1.7
		c-1,0-2,0.3-3,0.8l-0.8-1.7c0.6-0.3,1.2-0.6,1.9-0.8c0.7-0.2,1.4-0.3,2.1-0.3c1.6,0,2.7,0.4,3.4,1.1s1.1,1.8,1.1,3.3v4
		c0,0.5,0.1,1.3,0.2,2.4h-2.3c-0.1-0.5-0.2-0.9-0.2-1.2h-0.1c-0.4,0.5-0.8,0.9-1.3,1.1s-1.2,0.4-2.1,0.4c-1,0-1.8-0.3-2.4-0.8
		C88.8,21.2,88.5,20.4,88.5,19.3z M95.1,18.2v-0.8l-0.8,0c-1.2,0-2,0.1-2.5,0.4c-0.5,0.3-0.8,0.7-0.8,1.4c0,0.5,0.1,0.8,0.4,1
		s0.6,0.4,1.1,0.4c0.5,0,0.9-0.1,1.3-0.3c0.4-0.2,0.7-0.5,0.9-0.9C95,19,95.1,18.7,95.1,18.2z"/>
	<path class="st0" d="M99.4,24.2c0-1.1,0.6-2,1.8-2.7c-0.3-0.2-0.5-0.4-0.6-0.6c-0.1-0.2-0.2-0.5-0.2-0.8c0-0.4,0.1-0.7,0.4-1
		c0.3-0.3,0.6-0.5,1.1-0.6c-1.2-0.6-1.8-1.6-1.8-3.1c0-1.2,0.4-2.1,1.2-2.8s1.9-1,3.3-1c0.4,0,0.7,0,1,0.1s0.6,0.1,0.9,0.2h3.8v2
		l-2.1-0.3c0.2,0.2,0.4,0.5,0.6,0.9c0.1,0.4,0.2,0.8,0.2,1.2c0,1.1-0.4,1.9-1.2,2.5c-0.8,0.6-1.8,0.9-3.2,0.9
		c-0.6,0-1.1,0.1-1.4,0.2c-0.3,0.1-0.5,0.3-0.5,0.6c0,0.2,0.2,0.4,0.5,0.5c0.3,0.1,0.8,0.2,1.5,0.2c1.8,0.1,3.2,0.3,4.1,0.8
		c0.9,0.5,1.3,1.2,1.3,2.2c0,1.2-0.5,2.2-1.5,2.8c-1,0.7-2.4,1-4.3,1c-1.6,0-2.8-0.3-3.6-0.8C99.8,26,99.4,25.2,99.4,24.2z
		 M107.5,23.9c0-0.5-0.3-0.9-1-1.1c-0.7-0.2-1.9-0.3-3.6-0.4c-0.7,0.4-1.1,1-1.1,1.6c0,1,0.8,1.5,2.5,1.5c1.1,0,1.9-0.1,2.4-0.4
		C107.3,24.8,107.5,24.4,107.5,23.9z M106.7,15.4c0-0.6-0.2-1.1-0.5-1.4c-0.4-0.4-0.9-0.5-1.6-0.5c-0.7,0-1.2,0.2-1.6,0.5
		c-0.4,0.4-0.6,0.8-0.6,1.4c0,0.6,0.2,1.1,0.5,1.4c0.4,0.4,0.9,0.5,1.6,0.5C106,17.3,106.7,16.6,106.7,15.4z"/>
	<path class="st0" d="M121.1,18h-7.2c0.1,0.8,0.4,1.5,0.9,1.9c0.5,0.4,1.2,0.7,2,0.7c0.6,0,1.1-0.1,1.6-0.2c0.4-0.2,0.9-0.4,1.4-0.7
		l1.1,1.6c-0.6,0.4-1.2,0.8-1.9,1c-0.7,0.2-1.5,0.3-2.3,0.3c-1.1,0-2-0.2-2.8-0.7s-1.4-1.1-1.8-1.9c-0.4-0.8-0.6-1.8-0.6-2.9
		c0-1.7,0.4-3,1.3-4c0.9-1,2.1-1.5,3.7-1.5c1.6,0,2.8,0.5,3.6,1.5c0.8,1,1.2,2.3,1.2,4C121.2,17.4,121.2,17.7,121.1,18z M118.7,16.1
		c0-0.8-0.2-1.4-0.6-1.9c-0.4-0.5-1-0.7-1.7-0.7c-0.8,0-1.4,0.3-1.8,0.8s-0.7,1.1-0.7,1.9H118.7z"/>
</g>
<g>
	<path class="st1" d="M123.4,8.1h3l7,10.6h0l-0.1-10.6h2.4v14.2h-3l-7-10.6h0l0.1,10.6h-2.4V8.1z"/>
	<path class="st1" d="M148,18h-7.2c0.1,0.8,0.4,1.5,0.9,1.9c0.5,0.4,1.2,0.7,2,0.7c0.6,0,1.1-0.1,1.6-0.2c0.4-0.2,0.9-0.4,1.4-0.7
		l1.1,1.6c-0.6,0.4-1.2,0.8-1.9,1c-0.7,0.2-1.5,0.3-2.3,0.3c-1.1,0-2-0.2-2.8-0.7s-1.4-1.1-1.8-1.9c-0.4-0.8-0.6-1.8-0.6-2.9
		c0-1.7,0.4-3,1.3-4c0.9-1,2.1-1.5,3.7-1.5c1.6,0,2.8,0.5,3.6,1.5c0.8,1,1.2,2.3,1.2,4C148,17.4,148,17.7,148,18z M145.6,16.1
		c0-0.8-0.2-1.4-0.6-1.9c-0.4-0.5-1-0.7-1.7-0.7c-0.8,0-1.4,0.3-1.8,0.8s-0.7,1.1-0.7,1.9H145.6z"/>
	<path class="st1" d="M159.7,22.3h-3l-2.7-3.9l-2.6,3.9h-3l4-5.4l-3.6-5h2.9l2.3,3.5l2.3-3.5h2.7l-3.5,5L159.7,22.3z"/>
	<path class="st1" d="M164,12h2.6v1.9H164V19c0,1,0.4,1.5,1.3,1.5c0.4,0,0.7,0,0.9-0.1l0.4,1.8c-0.5,0.2-1.1,0.3-1.8,0.3
		c-1,0-1.8-0.3-2.4-0.9c-0.6-0.6-0.9-1.4-0.9-2.4v-5.4h-1.7v-1.6l1.7-0.3V9.5l2.5-0.9V12z"/>
</g>
<g>
	<path class="st1" d="M12.9,10.7l0.6,2.5c-0.3,0.1-0.5,0.2-0.7,0.5c-0.5,0.6-0.3,1.5,0.3,2s1.5,0.3,2-0.3c0,0,0,0,0,0l5.1,3.2
		c-0.3,0.5-0.2,1.2,0.3,1.5c0.5,0.4,1.3,0.3,1.7-0.3c0.3-0.4,0.3-1,0-1.4l2.5-2.3c0,0,0.1,0.1,0.1,0.1c0.5,0.4,1.3,0.3,1.7-0.3
		c0.2-0.3,0.3-0.6,0.2-1l2.4-0.7c0.1,0.1,0.1,0.3,0.3,0.4c0.4,0.3,0.9,0.2,1.2-0.2c0.3-0.4,0.2-0.9-0.2-1.2
		c-0.1-0.1-0.3-0.1-0.5-0.1L29.6,8c0.3,0,0.5-0.2,0.7-0.4c0.3-0.5,0.2-1.1-0.2-1.5c-0.5-0.3-1.1-0.2-1.5,0.2c0,0.1-0.1,0.1-0.1,0.2
		l-5.3-1.8c0.1-0.3,0-0.7-0.3-0.9c-0.4-0.3-0.9-0.2-1.2,0.2c-0.1,0.2-0.2,0.3-0.2,0.5l-3.2,0.3c0-0.2-0.1-0.3-0.3-0.4
		c-0.3-0.2-0.7-0.2-1,0.2c-0.2,0.3-0.2,0.6,0,0.8l-3.8,3.8c0,0,0,0,0,0C12.9,9,12.4,9,12.1,9.4c-0.3,0.4-0.2,0.9,0.2,1.2
		C12.5,10.7,12.7,10.8,12.9,10.7z M14.8,13.4C14.8,13.4,14.8,13.4,14.8,13.4l1.9-3.5c0.1,0,0.2,0,0.3,0l2,4.1
		c-0.1,0.1-0.2,0.1-0.2,0.2c-0.1,0.1-0.1,0.2-0.1,0.4l-3.3-0.1C15.4,14.1,15.2,13.7,14.8,13.4z M20.7,12c0,0,0.1,0.1,0.1,0.1l-1,1.9
		c-0.2-0.1-0.4-0.1-0.6,0l-2-4.1c0,0,0.1-0.1,0.1-0.1c0,0,0-0.1,0.1-0.1l2.6,0.5C19.8,10.8,20.1,11.6,20.7,12z M20.3,18.4
		C20.3,18.4,20.3,18.4,20.3,18.4l-5.1-3.2c0.1-0.2,0.1-0.3,0.2-0.5l3.3,0.1c0,0.2,0.1,0.5,0.3,0.6c0.2,0.2,0.5,0.2,0.7,0.1l1,2.5
		C20.6,18.1,20.4,18.2,20.3,18.4z M20.9,17.9l-1-2.5c0.1-0.1,0.2-0.1,0.3-0.2c0.3-0.4,0.2-0.9-0.2-1.2c0,0,0,0,0,0l1-1.9
		c0.2,0.1,0.4,0.2,0.7,0.2l-0.4,5.5C21.2,17.9,21,17.9,20.9,17.9z M24.6,14.5c-0.3,0.5-0.3,1,0,1.5l-2.5,2.3c0,0-0.1-0.1-0.1-0.1
		c-0.2-0.1-0.4-0.2-0.6-0.2l0.4-5.5c0.4,0,0.8-0.1,1.2-0.4l1.8,2.3C24.8,14.4,24.7,14.4,24.6,14.5z M25,14.2l-1.8-2.3
		c0.1-0.1,0.2-0.2,0.3-0.3c0.3-0.4,0.4-0.9,0.4-1.4l2.9-0.5c0,0.1,0.1,0.1,0.1,0.2c0,0,0,0,0.1,0l-1,4.2C25.5,14,25.2,14,25,14.2z
		 M29.3,13.4c-0.1,0.2-0.2,0.4-0.1,0.6l-2.4,0.7c-0.1-0.2-0.2-0.4-0.4-0.6c-0.1-0.1-0.2-0.1-0.3-0.2l1-4.2c0,0,0.1,0,0.1,0l2.2,3.4
		C29.4,13.3,29.3,13.4,29.3,13.4z M28.8,7.8C29,7.9,29.2,8,29.4,8l0.4,5.1c-0.1,0-0.2,0-0.2,0.1l-2.2-3.4c0,0,0,0,0,0
		c0.1-0.1,0.1-0.3,0-0.4L28.8,7.8C28.8,7.8,28.8,7.8,28.8,7.8z M23,5.1c0-0.1,0.1-0.1,0.1-0.2l5.3,1.8c-0.1,0.3,0,0.7,0.3,1
		l-1.4,1.6c-0.1-0.1-0.3-0.1-0.4,0L23,5.1C23,5.1,23,5.1,23,5.1z M22.3,5.4c0.2,0,0.4-0.1,0.5-0.2l3.9,4.1c0,0.1-0.1,0.1-0.1,0.2
		L23.8,10c-0.1-0.5-0.4-0.9-0.8-1.2c-0.3-0.2-0.6-0.3-0.9-0.4L22.3,5.4z M21.8,5.3c0.1,0.1,0.2,0.1,0.4,0.1l-0.2,3
		c-0.6,0-1.3,0.3-1.7,0.8c-0.2,0.2-0.3,0.5-0.3,0.7l-2.6-0.5c0-0.1,0-0.2-0.1-0.3L21.8,5.3C21.8,5.2,21.8,5.2,21.8,5.3z M17.6,5.7
		c0.2,0,0.4-0.1,0.6-0.3c0.1-0.1,0.1-0.2,0.1-0.4l3.2-0.3c0,0.1,0.1,0.2,0.2,0.3l-4.4,4c0,0,0,0,0,0c0,0-0.1,0-0.1-0.1L17.6,5.7z
		 M17.2,5.6C17.2,5.6,17.2,5.6,17.2,5.6c0.1,0.1,0.1,0.1,0.2,0.1L16.9,9c-0.1,0-0.3,0.1-0.4,0.2c-0.1,0.1-0.1,0.2-0.1,0.3l-2.8,0.3
		c0-0.1-0.1-0.2-0.2-0.4L17.2,5.6z M13.5,10.4c0.1-0.2,0.1-0.3,0.1-0.5l2.8-0.3c0,0.1,0.1,0.2,0.1,0.2l-2,3.5
		c-0.3-0.1-0.6-0.2-0.9-0.1l-0.6-2.5C13.3,10.6,13.4,10.6,13.5,10.4z"/>
	<path class="st2" d="M13.7,19.1c-2.9-2-6.4-3.5-10.2-4l-0.1,4.4c3-0.2,6.2,0.3,9.3,1.6c3,1.3,5.9,3.1,8.4,5.5
		C19.1,23.7,16.6,21.2,13.7,19.1z"/>
	<path class="st2" d="M38.6,15.1c-3.8,0.5-7.3,2-10.2,4c-2.9,2-5.4,4.5-7.4,7.4c2.5-2.3,5.4-4.2,8.4-5.5c3-1.3,6.2-1.8,9.3-1.6
		L38.6,15.1z"/>
	<path class="st1" d="M27.4,22.8c-2.5,1.4-4.7,3.1-6.4,5c2.2-1.6,4.7-2.8,7.3-3.7c2.6-0.9,5.4-1.2,8-1.1l-0.1-2.9
		C33,20.5,29.9,21.5,27.4,22.8z"/>
	<path class="st1" d="M14.6,22.8c-2.5-1.4-5.6-2.4-8.9-2.7l-0.1,2.9c2.6-0.2,5.4,0.2,8,1.1c2.6,0.9,5.1,2.1,7.3,3.7
		C19.3,25.9,17.2,24.2,14.6,22.8z"/>
</g>
</svg>
