<?xml version="1.0" encoding="utf-8"?>
<!-- Generator: Adobe Illustrator 24.1.2, SVG Export Plug-In . SVG Version: 6.00 Build 0)  -->
<svg version="1.1" id="Layer_1" xmlns="http://www.w3.org/2000/svg" xmlns:xlink="http://www.w3.org/1999/xlink" x="0px" y="0px"
	 viewBox="0 0 40 40" style="enable-background:new 0 0 40 40;" xml:space="preserve">
<style type="text/css">
	.st0{fill:#666766;}
</style>
<path class="st0" d="M16.4,6.2c0-1.9,1.5-3.4,3.4-3.4c1.9,0,3.4,1.5,3.4,3.4c0,1.9-1.5,3.4-3.4,3.4C18,9.6,16.4,8.1,16.4,6.2z
	 M29.1,21.9l-4.9-10.8c-0.3-0.6-0.9-0.8-1.5-0.8c-2.1,0-3.4,0-5.7,0c-0.6,0-1.2,0.3-1.5,0.8l-4.9,10.8c-0.3,0.7,0,1.6,0.7,2
	c0.2,0.1,0.4,0.1,0.6,0.1c0.6,0,1.1-0.3,1.3-0.9l2.4-5.2v5.6c0,0,0,0,0,0v12.7c0,1,0.8,1.8,1.8,1.8c1,0,1.8-0.8,1.8-1.8V25.7h1.3
	v10.5c0,1,0.8,1.8,1.8,1.8c1,0,1.8-0.8,1.8-1.8V23.6c0,0,0,0,0,0v-5.6l2.4,5.2c0.2,0.5,0.8,0.9,1.3,0.9c0.2,0,0.4,0,0.6-0.1
	C29.1,23.5,29.4,22.6,29.1,21.9z"/>
</svg>
